<?xml version="1.0" standalone="no"?><!DOCTYPE svg PUBLIC "-//W3C//DTD SVG 1.1//EN" "http://www.w3.org/Graphics/SVG/1.1/DTD/svg11.dtd"><svg t="1525768892611" class="icon" style="" viewBox="0 0 1024 1024" version="1.1" xmlns="http://www.w3.org/2000/svg" p-id="1713" xmlns:xlink="http://www.w3.org/1999/xlink" width="200" height="200"><defs><style type="text/css"></style></defs><path d="M503.469535 466.43699a54.083641 54.083641 0 1 0 54.083641 54.083642 54.142642 54.142642 0 0 0-54.083641-54.083642z" fill="#FFFFFF" p-id="1714"></path><path d="M503.469535 105.669602c-228.754136 0-414.860863 186.106727-414.860864 414.860863S274.715398 935.391329 503.469535 935.391329 918.330398 749.304268 918.330398 520.520632 732.223671 105.669602 503.469535 105.669602z m191.97726 272.453719l-76.700437 76.700437A131.934585 131.934585 0 0 1 636.220291 520.520632c0 73.19975-59.551006 132.750756-132.750756 132.750756s-132.750756-59.551006-132.750756-132.750756 59.551006-132.750756 132.750756-132.750756a131.944418 131.944418 0 0 1 57.800662 13.265242L639.819311 322.535171a39.333557 39.333557 0 0 1 55.627484 55.627483zM890.846075 525.102991a14.750084 14.750084 0 1 1-14.750084-14.750084 14.750084 14.750084 0 0 1 14.750084 14.750084zM872.221635 490.155126a14.956585 14.956585 0 0 1-1.79951 0.108167 14.750084 14.750084 0 0 1-14.62225-12.970241c-21.574456-177.718846-173.067653-311.718442-352.369674-311.718442a14.750084 14.750084 0 0 1 0-29.500168c194.20944 0 358.289374 145.170327 381.653508 337.688424A14.750084 14.750084 0 0 1 872.221635 490.155126z" fill="#FFFFFF" p-id="1715"></path><path d="M0 17.060931v1006.939069h1006.939069v-1006.939069z m958.194958 695.584462a495.01282 495.01282 0 1 1 38.802555-192.114928 491.836635 491.836635 0 0 1-38.802555 192.114928z" fill="#FFFFFF" p-id="1716"></path><path d="M852.446689 171.553311A492.11197 492.11197 0 1 0 958.194958 328.435204a491.826802 491.826802 0 0 0-105.748269-156.881893zM503.469535 935.391329c-228.754136 0-414.860863-186.08706-414.860864-414.870697S274.715398 105.669602 503.469535 105.669602s414.860863 186.096893 414.860863 414.85103S732.223671 935.391329 503.469535 935.391329z" fill="#1FD389" p-id="1717"></path><path d="M503.469535 136.044942a14.750084 14.750084 0 0 0 0 29.500168c179.311855 0 330.805051 134.019263 352.369674 311.718442a14.750084 14.750084 0 0 0 14.62225 12.970241 14.956585 14.956585 0 0 0 1.79951-0.108168 14.750084 14.750084 0 0 0 12.862073-16.42176C861.758909 281.234935 697.688808 136.044942 503.469535 136.044942z" fill="#1FD389" p-id="1718"></path><path d="M639.819311 322.535171l-78.53928 78.53928A131.944418 131.944418 0 0 0 503.469535 387.769876c-73.19975 0-132.750756 59.551006-132.750756 132.750756s59.551006 132.750756 132.750756 132.750756 132.750756-59.551006 132.750756-132.750756a131.934585 131.934585 0 0 0-17.444433-65.736208l76.700437-76.700437a39.333557 39.333557 0 0 0-55.656984-55.548816zM503.469535 574.604273a54.083641 54.083641 0 1 1 54.083641-54.083641 54.142642 54.142642 0 0 1-54.083641 54.083641z" fill="#FC4F64" p-id="1719"></path><path d="M876.095991 525.142325m-14.750084 0a14.750084 14.750084 0 1 0 29.500168 0 14.750084 14.750084 0 1 0-29.500168 0Z" fill="#1FD389" p-id="1720"></path></svg>